<svg width="32" height="32" viewBox="0 0 32 32" fill="none" xmlns="http://www.w3.org/2000/svg">
<path d="M4.79995 4.00001C4.79995 3.78784 4.71567 3.58436 4.56564 3.43433C4.41561 3.2843 4.21212 3.20001 3.99995 3.20001C3.78778 3.20001 3.5843 3.2843 3.43427 3.43433C3.28424 3.58436 3.19995 3.78784 3.19995 4.00001V28C3.19995 28.2122 3.28424 28.4157 3.43427 28.5657C3.5843 28.7157 3.78778 28.8 3.99995 28.8H28C28.2121 28.8 28.4156 28.7157 28.5656 28.5657C28.7157 28.4157 28.8 28.2122 28.8 28C28.8 27.7878 28.7157 27.5844 28.5656 27.4343C28.4156 27.2843 28.2121 27.2 28 27.2H25.6V8.80001C25.5997 8.64948 25.5571 8.50206 25.4768 8.37469C25.3966 8.24733 25.282 8.14519 25.1463 8.08002C25.0106 8.01484 24.8593 7.98928 24.7097 8.00626C24.5601 8.02324 24.4184 8.08208 24.3008 8.17601L16.7248 14.2352L11.5968 11.3056C11.4878 11.2433 11.3657 11.2075 11.2403 11.2011C11.115 11.1947 10.9899 11.2179 10.8752 11.2688L4.79995 13.9696V4.00001ZM4.79995 15.72L11.1552 12.896L16.4032 15.8944C16.5424 15.9738 16.7022 16.0095 16.862 15.9969C17.0217 15.9844 17.174 15.9241 17.2992 15.824L24 10.464V27.2H4.79995V15.72Z" fill="#647493"/>
</svg>
