<svg width="32" height="32" viewBox="0 0 32 32" fill="none" xmlns="http://www.w3.org/2000/svg">
<path d="M9.09067 29.3333V25.524C8.69333 21.5547 4 19.4293 4 13.3333C4 7.23999 7.636 2.59199 14.9093 2.66666C20.1453 2.72266 25.0907 5.71466 25.0907 11.8107L28 16.3813C28 19.4293 25.0907 19.4293 25.0907 19.4293C25.0907 19.4293 25.8187 27.048 19.272 27.048V29.3333" stroke="#647493" stroke-width="2" stroke-linecap="round" stroke-linejoin="round"/>
<path d="M14.6667 16C15.3739 16 16.0522 15.7191 16.5523 15.219C17.0524 14.7189 17.3333 14.0406 17.3333 13.3334C17.3333 12.6261 17.0524 11.9478 16.5523 11.4477C16.0522 10.9476 15.3739 10.6667 14.6667 10.6667C13.9594 10.6667 13.2811 10.9476 12.781 11.4477C12.281 11.9478 12 12.6261 12 13.3334C12 14.0406 12.281 14.7189 12.781 15.219C13.2811 15.7191 13.9594 16 14.6667 16Z" stroke="#647493" stroke-width="2" stroke-linecap="round" stroke-linejoin="round"/>
<path d="M14.6666 17.3333C15.7275 17.3333 16.7449 16.9119 17.4951 16.1617C18.2452 15.4116 18.6666 14.3942 18.6666 13.3333C18.6666 12.2724 18.2452 11.255 17.4951 10.5049C16.7449 9.75474 15.7275 9.33331 14.6666 9.33331C13.6058 9.33331 12.5883 9.75474 11.8382 10.5049C11.0881 11.255 10.6666 12.2724 10.6666 13.3333C10.6666 14.3942 11.0881 15.4116 11.8382 16.1617C12.5883 16.9119 13.6058 17.3333 14.6666 17.3333Z" stroke="#647493" stroke-width="2" stroke-linecap="round" stroke-linejoin="round"/>
</svg>
