<svg width="32" height="32" viewBox="0 0 32 32" fill="none" xmlns="http://www.w3.org/2000/svg">
<path d="M16 4C9.37187 4 4 9.37187 4 16V27.25C4 27.6656 4.33437 28 4.75 28H10.5C11.6031 28 12.5 27.1031 12.5 26V19.5C12.5 18.3969 11.6031 17.5 10.5 17.5H6.25V16C6.25 10.6156 10.6156 6.25 16 6.25C21.3844 6.25 25.75 10.6156 25.75 16V17.5H21.5C20.3969 17.5 19.5 18.3969 19.5 19.5V26C19.5 27.1031 20.3969 28 21.5 28H27.25C27.6656 28 28 27.6656 28 27.25V16C28 9.37187 22.6281 4 16 4ZM10.25 19.75V25.75H6.25V19.75H10.25ZM25.75 25.75H21.75V19.75H25.75V25.75Z" fill="#647493"/>
</svg>
