<svg width="32" height="32" viewBox="0 0 32 32" fill="none" xmlns="http://www.w3.org/2000/svg">
<path d="M6 21V20H4V21C4 22.8565 4.7375 24.637 6.05025 25.9497C7.36301 27.2625 9.14348 28 11 28H14V26H11C9.67392 26 8.40215 25.4732 7.46447 24.5355C6.52678 23.5979 6 22.3261 6 21ZM24 11V12H26V11C26 9.14349 25.2625 7.36301 23.9497 6.05025C22.637 4.7375 20.8565 4 19 4H16V6H19C19.6566 6 20.3068 6.12933 20.9134 6.3806C21.52 6.63188 22.0712 7.00017 22.5355 7.46447C22.9998 7.92876 23.3681 8.47996 23.6194 9.08659C23.8707 9.69321 24 10.3434 24 11ZM11 11H5C4.20435 11 3.44129 11.3161 2.87868 11.8787C2.31607 12.4413 2 13.2044 2 14V16H4V14C4 13.7348 4.10536 13.4804 4.29289 13.2929C4.48043 13.1054 4.73478 13 5 13H11C11.2652 13 11.5196 13.1054 11.7071 13.2929C11.8946 13.4804 12 13.7348 12 14V16H14V14C14 13.2044 13.6839 12.4413 13.1213 11.8787C12.5587 11.3161 11.7956 11 11 11ZM8 10C8.79113 10 9.56448 9.76541 10.2223 9.32588C10.8801 8.88635 11.3928 8.26164 11.6955 7.53074C11.9983 6.79983 12.0775 5.99556 11.9231 5.21964C11.7688 4.44372 11.3878 3.73098 10.8284 3.17157C10.269 2.61216 9.55629 2.2312 8.78036 2.07686C8.00444 1.92252 7.20017 2.00173 6.46927 2.30448C5.73836 2.60723 5.11365 3.11992 4.67412 3.77772C4.2346 4.43552 4 5.20888 4 6C4 7.06087 4.42143 8.07828 5.17157 8.82843C5.92172 9.57857 6.93913 10 8 10ZM8 4C8.39556 4 8.78224 4.1173 9.11114 4.33706C9.44004 4.55683 9.69638 4.86918 9.84776 5.23463C9.99913 5.60009 10.0387 6.00222 9.96157 6.39018C9.8844 6.77814 9.69392 7.13451 9.41421 7.41422C9.13451 7.69392 8.77814 7.8844 8.39018 7.96157C8.00222 8.03874 7.60009 7.99914 7.23463 7.84776C6.86918 7.69639 6.55682 7.44004 6.33706 7.11114C6.1173 6.78224 6 6.39556 6 6C6 5.46957 6.21071 4.96086 6.58579 4.58579C6.96086 4.21072 7.46957 4 8 4ZM27 25H21C20.2044 25 19.4413 25.3161 18.8787 25.8787C18.3161 26.4413 18 27.2044 18 28V30H20V28C20 27.7348 20.1054 27.4804 20.2929 27.2929C20.4804 27.1054 20.7348 27 21 27H27C27.2652 27 27.5196 27.1054 27.7071 27.2929C27.8946 27.4804 28 27.7348 28 28V30H30V28C30 27.2044 29.6839 26.4413 29.1213 25.8787C28.5587 25.3161 27.7956 25 27 25ZM20 20C20 20.7911 20.2346 21.5645 20.6741 22.2223C21.1136 22.8801 21.7384 23.3928 22.4693 23.6955C23.2002 23.9983 24.0044 24.0775 24.7804 23.9231C25.5563 23.7688 26.269 23.3878 26.8284 22.8284C27.3878 22.269 27.7688 21.5563 27.9231 20.7804C28.0775 20.0044 27.9983 19.2002 27.6955 18.4693C27.3928 17.7384 26.8801 17.1136 26.2223 16.6741C25.5645 16.2346 24.7911 16 24 16C22.9391 16 21.9217 16.4214 21.1716 17.1716C20.4214 17.9217 20 18.9391 20 20ZM26 20C26 20.3956 25.8827 20.7822 25.6629 21.1111C25.4432 21.44 25.1308 21.6964 24.7654 21.8478C24.3999 21.9991 23.9978 22.0387 23.6098 21.9616C23.2219 21.8844 22.8655 21.6939 22.5858 21.4142C22.3061 21.1345 22.1156 20.7781 22.0384 20.3902C21.9613 20.0022 22.0009 19.6001 22.1522 19.2346C22.3036 18.8692 22.56 18.5568 22.8889 18.3371C23.2178 18.1173 23.6044 18 24 18C24.5304 18 25.0391 18.2107 25.4142 18.5858C25.7893 18.9609 26 19.4696 26 20Z" fill="#647493"/>
</svg>
