<svg width="32" height="32" viewBox="0 0 32 32" fill="none" xmlns="http://www.w3.org/2000/svg">
<path d="M5.33329 8.00002C6.04054 8.00002 6.71881 7.71907 7.21891 7.21897C7.71901 6.71887 7.99996 6.0406 7.99996 5.33335C7.99996 4.62611 7.71901 3.94783 7.21891 3.44774C6.71881 2.94764 6.04054 2.66669 5.33329 2.66669C4.62605 2.66669 3.94777 2.94764 3.44767 3.44774C2.94758 3.94783 2.66663 4.62611 2.66663 5.33335C2.66663 6.0406 2.94758 6.71887 3.44767 7.21897C3.94777 7.71907 4.62605 8.00002 5.33329 8.00002ZM6.66663 28C7.72749 28 8.74491 27.5786 9.49505 26.8284C10.2452 26.0783 10.6666 25.0609 10.6666 24C10.6666 22.9392 10.2452 21.9217 9.49505 21.1716C8.74491 20.4214 7.72749 20 6.66663 20C5.60576 20 4.58834 20.4214 3.8382 21.1716C3.08805 21.9217 2.66663 22.9392 2.66663 24C2.66663 25.0609 3.08805 26.0783 3.8382 26.8284C4.58834 27.5786 5.60576 28 6.66663 28ZM25.3333 29.3334C26.3942 29.3334 27.4116 28.9119 28.1617 28.1618C28.9119 27.4116 29.3333 26.3942 29.3333 25.3334C29.3333 24.2725 28.9119 23.2551 28.1617 22.5049C27.4116 21.7548 26.3942 21.3334 25.3333 21.3334C24.2724 21.3334 23.255 21.7548 22.5049 22.5049C21.7547 23.2551 21.3333 24.2725 21.3333 25.3334C21.3333 26.3942 21.7547 27.4116 22.5049 28.1618C23.255 28.9119 24.2724 29.3334 25.3333 29.3334ZM14.6666 18.6667C16.0811 18.6667 17.4377 18.1048 18.4379 17.1046C19.4381 16.1044 20 14.7478 20 13.3334C20 11.9189 19.4381 10.5623 18.4379 9.56212C17.4377 8.56192 16.0811 8.00002 14.6666 8.00002C13.2521 8.00002 11.8956 8.56192 10.8954 9.56212C9.8952 10.5623 9.33329 11.9189 9.33329 13.3334C9.33329 14.7478 9.8952 16.1044 10.8954 17.1046C11.8956 18.1048 13.2521 18.6667 14.6666 18.6667ZM22.6666 8.00002C23.3739 8.00002 24.0521 7.71907 24.5522 7.21897C25.0523 6.71887 25.3333 6.0406 25.3333 5.33335C25.3333 4.62611 25.0523 3.94783 24.5522 3.44774C24.0521 2.94764 23.3739 2.66669 22.6666 2.66669C21.9594 2.66669 21.2811 2.94764 20.781 3.44774C20.2809 3.94783 20 4.62611 20 5.33335C20 6.0406 20.2809 6.71887 20.781 7.21897C21.2811 7.71907 21.9594 8.00002 22.6666 8.00002Z" stroke="#647493" stroke-width="2" stroke-linecap="round" stroke-linejoin="round"/>
<path d="M7.33325 7.33337L9.99992 10M19.9999 8.00004L18.6666 9.33337M22.6666 22.3334L18.6666 17.3334M9.33325 20.6667L11.9999 18" stroke="#647493" stroke-width="2" stroke-linecap="round" stroke-linejoin="round"/>
</svg>
