<svg width="349" height="225" viewBox="0 0 349 225" fill="none" xmlns="http://www.w3.org/2000/svg">
<g clip-path="url(#clip0_52_21)">
<rect width="349" height="225" fill="#F8FAFF"/>
<rect x="24.5" y="30.5" width="140" height="35" rx="11.5" stroke="#C2CDE4"/>
<path d="M41.5229 50.424C41.6629 50.3413 41.8159 50.262 41.9819 50.186C41.8416 50.395 41.6914 50.5972 41.5319 50.792C41.2519 51.129 41.0339 51.308 40.8969 51.364L40.8619 51.376C40.852 51.3621 40.8433 51.3474 40.8359 51.332C40.7799 51.222 40.7819 51.116 40.8759 50.972C40.9819 50.807 41.1949 50.618 41.5229 50.424ZM43.9779 48.777C43.8593 48.8017 43.7406 48.8276 43.6219 48.855C43.7983 48.5097 43.965 48.1595 44.1219 47.805C44.28 48.0979 44.4501 48.3842 44.6319 48.663C44.4146 48.695 44.1966 48.733 43.9779 48.777ZM46.5029 49.716C46.3479 49.5904 46.2025 49.4533 46.0679 49.306C46.2973 49.3106 46.5013 49.3286 46.6799 49.36C46.9969 49.417 47.1459 49.507 47.1979 49.569C47.2139 49.5866 47.2232 49.6092 47.2239 49.633C47.2203 49.7035 47.1997 49.7721 47.1639 49.833C47.1441 49.8819 47.1116 49.9246 47.0699 49.957C47.0495 49.9702 47.025 49.9755 47.0009 49.972C46.9109 49.969 46.7429 49.906 46.5029 49.716ZM44.2779 44.97C44.2379 45.214 44.1699 45.494 44.0779 45.799C44.0442 45.6847 44.0145 45.5693 43.9889 45.453C43.9129 45.1 43.9019 44.823 43.9429 44.631C43.9809 44.454 44.0529 44.383 44.1389 44.348C44.185 44.3274 44.2339 44.3139 44.2839 44.308C44.2969 44.338 44.3119 44.4 44.3159 44.506C44.3213 44.628 44.3086 44.783 44.2779 44.971V44.97Z" fill="#DD2025"/>
<path fill-rule="evenodd" clip-rule="evenodd" d="M40 40H48C48.5304 40 49.0391 40.2107 49.4142 40.5858C49.7893 40.9609 50 41.4696 50 42V54C50 54.5304 49.7893 55.0391 49.4142 55.4142C49.0391 55.7893 48.5304 56 48 56H40C39.4696 56 38.9609 55.7893 38.5858 55.4142C38.2107 55.0391 38 54.5304 38 54V42C38 41.4696 38.2107 40.9609 38.5858 40.5858C38.9609 40.2107 39.4696 40 40 40ZM40.165 51.668C40.255 51.848 40.395 52.011 40.603 52.087C40.81 52.162 41.015 52.127 41.183 52.057C41.501 51.927 41.818 51.621 42.109 51.271C42.442 50.87 42.792 50.344 43.13 49.761C43.7825 49.5673 44.4507 49.4315 45.127 49.355C45.427 49.738 45.737 50.068 46.037 50.305C46.317 50.525 46.64 50.708 46.971 50.722C47.1513 50.7307 47.3297 50.6824 47.481 50.584C47.636 50.483 47.751 50.337 47.835 50.168C47.925 49.987 47.98 49.798 47.973 49.605C47.967 49.4147 47.8965 49.232 47.773 49.087C47.547 48.817 47.177 48.687 46.813 48.622C46.3714 48.554 45.9234 48.5372 45.478 48.572C45.1021 48.0401 44.7741 47.4759 44.498 46.886C44.748 46.226 44.935 45.602 45.018 45.092C45.054 44.874 45.073 44.666 45.066 44.478C45.0647 44.2914 45.0213 44.1075 44.939 43.94C44.8916 43.8476 44.8241 43.7669 44.7416 43.7037C44.6591 43.6406 44.5636 43.5966 44.462 43.575C44.26 43.532 44.052 43.575 43.861 43.652C43.484 43.802 43.285 44.122 43.21 44.475C43.137 44.815 43.17 45.211 43.256 45.611C43.344 46.017 43.494 46.459 43.686 46.906C43.3782 47.6695 43.0235 48.4132 42.624 49.133C42.1087 49.2954 41.612 49.5116 41.142 49.778C40.772 49.998 40.443 50.258 40.245 50.565C40.035 50.891 39.97 51.279 40.165 51.668Z" fill="#DD2025"/>
<path d="M65.168 52.32C62.64 52.32 60.816 50.448 60.816 47.856C60.816 45.392 62.608 43.6 65.104 43.6C67.568 43.6 69.344 45.392 69.344 47.872C69.344 48.032 69.344 48.224 69.328 48.4H62.176C62.368 50.032 63.552 51.12 65.2 51.12C66.4 51.12 67.456 50.512 67.968 49.552L69.072 50.112C68.416 51.488 66.96 52.32 65.168 52.32ZM62.192 47.232H67.952C67.712 45.776 66.576 44.8 65.04 44.8C63.552 44.8 62.416 45.776 62.192 47.232ZM71.3883 52V43.92H72.6683V44.992H72.8283C73.2763 44.16 74.1243 43.6 75.1803 43.6C76.3163 43.6 77.3563 44.224 77.8203 45.168H77.9643C78.5243 44.224 79.4523 43.616 80.6683 43.616C82.5723 43.616 83.9323 45.088 83.9323 47.184V52H82.6043V47.168C82.6043 45.792 81.7243 44.8 80.5083 44.8C79.2123 44.8 78.3003 45.792 78.3003 47.168V52H76.9723V47.168C76.9723 45.744 76.1403 44.8 74.8923 44.8C73.5803 44.8 72.7163 45.744 72.7163 47.168V52H71.3883ZM90.664 52.32C89.336 52.32 88.296 51.744 87.704 50.752H87.56V52H86.232V40.24H87.56V45.12H87.704C88.296 44.144 89.384 43.6 90.68 43.6C93.032 43.6 94.84 45.424 94.84 47.952C94.84 50.48 93.016 52.32 90.664 52.32ZM90.52 51.12C92.248 51.12 93.512 49.76 93.512 47.952C93.512 46.176 92.248 44.8 90.52 44.8C88.776 44.8 87.512 46.176 87.512 47.952C87.512 49.728 88.776 51.12 90.52 51.12ZM99.1443 52.256C97.4003 52.256 96.2483 51.344 96.2483 49.952C96.2483 48.528 97.4643 47.472 99.8643 47.2L102.104 46.928V46.608C102.104 45.52 101.32 44.816 99.9923 44.816C98.7763 44.816 97.9763 45.408 97.9923 46.416H96.6483C96.6483 44.704 97.9763 43.616 100.008 43.616C102.104 43.616 103.432 44.8 103.432 46.64V52H102.104V50.816H101.96C101.384 51.744 100.44 52.256 99.1443 52.256ZM99.3363 51.152C100.984 51.152 102.104 50.144 102.104 48.784V48.064L99.8643 48.32C98.2163 48.528 97.5763 49.168 97.5763 49.92C97.5763 50.688 98.2483 51.152 99.3363 51.152ZM109.044 52.32C106.724 52.32 105.38 51.184 105.38 49.264H106.66C106.676 50.416 107.572 51.2 109.092 51.2C110.308 51.2 111.092 50.688 111.092 49.84C111.092 48.784 109.988 48.704 108.772 48.544C107.268 48.368 105.524 47.968 105.524 46.128C105.524 44.56 106.836 43.6 108.772 43.6C110.788 43.6 112.164 44.672 112.164 46.336H110.868C110.852 45.344 110.004 44.72 108.756 44.72C107.588 44.72 106.788 45.248 106.788 46.08C106.788 47.088 107.876 47.168 109.076 47.312C110.596 47.504 112.34 47.888 112.34 49.824C112.34 51.408 111.108 52.32 109.044 52.32ZM117.763 52.32C115.443 52.32 114.099 51.184 114.099 49.264H115.379C115.395 50.416 116.291 51.2 117.811 51.2C119.027 51.2 119.811 50.688 119.811 49.84C119.811 48.784 118.707 48.704 117.491 48.544C115.987 48.368 114.243 47.968 114.243 46.128C114.243 44.56 115.555 43.6 117.491 43.6C119.507 43.6 120.883 44.672 120.883 46.336H119.587C119.571 45.344 118.723 44.72 117.475 44.72C116.307 44.72 115.507 45.248 115.507 46.08C115.507 47.088 116.595 47.168 117.795 47.312C119.315 47.504 121.059 47.888 121.059 49.824C121.059 51.408 119.827 52.32 117.763 52.32ZM123.634 52.208C123.106 52.208 122.754 51.84 122.754 51.328C122.754 50.816 123.106 50.448 123.634 50.448C124.146 50.448 124.514 50.816 124.514 51.328C124.514 51.84 124.146 52.208 123.634 52.208ZM130.977 43.6C133.329 43.6 135.153 45.424 135.153 47.952C135.153 50.48 133.345 52.32 130.993 52.32C129.697 52.32 128.609 51.76 128.017 50.8H127.873V55.68H126.545V43.92H127.873V45.152H128.017C128.609 44.176 129.649 43.6 130.977 43.6ZM130.833 44.8C129.089 44.8 127.825 46.176 127.825 47.952C127.825 49.728 129.089 51.12 130.833 51.12C132.561 51.12 133.825 49.728 133.825 47.952C133.825 46.144 132.561 44.8 130.833 44.8ZM140.977 52.32C138.609 52.32 136.785 50.48 136.785 47.952C136.785 45.424 138.593 43.6 140.961 43.6C142.257 43.6 143.329 44.144 143.921 45.12H144.081V40.24H145.409V52H144.081V50.752H143.921C143.329 51.744 142.289 52.32 140.977 52.32ZM141.121 51.12C142.849 51.12 144.113 49.728 144.113 47.952C144.113 46.176 142.849 44.8 141.121 44.8C139.377 44.8 138.113 46.176 138.113 47.952C138.113 49.76 139.393 51.12 141.121 51.12ZM148.577 52V44.976H147.281V43.92H148.577V42.288C148.577 40.848 149.457 39.92 150.737 39.92C151.201 39.92 151.601 40 151.969 40.112V41.264C151.697 41.184 151.409 41.12 151.089 41.12C150.385 41.12 149.905 41.632 149.905 42.416V43.92H151.953V44.976H149.905V52H148.577Z" fill="#404E6A"/>
<circle cx="28" cy="75" r="4" fill="#4D88FB"/>
<circle opacity="0.2" cx="50" cy="75" r="4" fill="#4D88FB"/>
<circle opacity="0.6" cx="39" cy="74" r="4" fill="#4D88FB"/>
<g filter="url(#filter0_d_52_21)">
<g clip-path="url(#clip1_52_21)">
<rect x="20" y="104" width="309.037" height="149" rx="11.037" fill="white"/>
<mask id="path-10-inside-1_52_21" fill="white">
<path d="M20.9197 154.586H329.037V247.481H20.9197V154.586Z"/>
</mask>
<path d="M20.9197 154.586H329.037V247.481H20.9197V154.586Z" fill="white"/>
<path d="M20.9197 155.506H329.037V153.667H20.9197V155.506Z" fill="black" fill-opacity="0.05" mask="url(#path-10-inside-1_52_21)"/>
<path d="M96.296 204.259L68.3843 226.533C67.5095 227.231 67 228.29 67 229.409V236.841C67 238.873 68.6472 240.52 70.679 240.52H343.242C346.519 240.52 348.161 236.558 345.843 234.24L326.095 214.492C325.919 214.316 325.726 214.159 325.519 214.022L303.19 199.292C301.363 198.087 298.894 198.734 297.893 200.68L284.899 225.94C283.941 227.803 281.623 228.491 279.804 227.453L259.737 216.001C258.007 215.013 255.805 215.582 254.77 217.284L246.762 230.448C245.577 232.394 242.927 232.807 241.206 231.313L190.388 187.181C188.963 185.942 186.831 185.985 185.455 187.279L141.085 229.018C139.812 230.216 137.872 230.352 136.443 229.344L100.712 204.129C99.3749 203.186 97.5752 203.239 96.296 204.259Z" fill="url(#paint0_linear_52_21)" fill-opacity="0.54"/>
<path d="M67 227.638L96.296 204.259C97.5752 203.239 99.3749 203.186 100.712 204.129L136.443 229.344C137.872 230.352 139.812 230.216 141.085 229.018L185.455 187.279C186.831 185.985 188.963 185.942 190.388 187.181L241.206 231.313C242.927 232.807 245.577 232.394 246.762 230.448L254.77 217.284C255.805 215.582 258.007 215.013 259.737 216.001L279.804 227.453C281.623 228.491 283.941 227.803 284.899 225.94L297.893 200.68C298.894 198.734 301.363 198.087 303.19 199.292L325.831 214.228" stroke="#4D88FB" stroke-width="1.37963"/>
<rect x="33.7964" y="118.716" width="259.37" height="7.35802" rx="3.67901" fill="#C2CDE4"/>
<rect x="33.7964" y="132.512" width="180.272" height="7.35802" rx="3.67901" fill="#EDF3FF"/>
<path d="M42.1826 185.025V181.524H34.0395V178.875L40.1893 167.62H47.3358V177.854H49.2804V181.524H47.3358V185.025H42.1826ZM38.6336 177.854H42.1826V171.583H41.9395L38.6336 177.854ZM52.3956 189.279L50.8885 188.695L52.3713 185.243C51.2045 185 50.4024 184.052 50.4024 182.837C50.4024 181.403 51.4719 180.382 52.9547 180.382C54.4375 180.382 55.4827 181.403 55.4827 182.837C55.4827 183.469 55.2882 184.125 54.8507 184.855L52.3956 189.279ZM61.5929 167.256C65.9197 167.256 68.8852 169.735 68.8852 173.479C68.8852 174.913 68.156 176.468 67.1837 177.83L62.2006 185.025H56.6341L60.9609 179.021C60.4261 179.167 59.9156 179.215 59.4538 179.215C56.2695 179.215 54.0575 177.003 54.0575 173.673C54.0575 169.784 57.1203 167.256 61.5929 167.256ZM61.447 171.291C60.1101 171.291 59.1864 172.19 59.1864 173.697C59.1864 175.156 60.1101 176.079 61.447 176.079C62.8083 176.079 63.7563 175.156 63.7563 173.697C63.7563 172.166 62.8083 171.291 61.447 171.291ZM77.3069 185.365C72.7127 185.365 69.893 183.347 69.893 180.212C69.893 178 71.2786 176.517 73.1989 176.104V175.861C71.7404 175.229 70.6223 174.062 70.6223 172.142C70.6223 169.127 73.2232 167.256 77.3069 167.256C81.342 167.256 83.9915 169.322 83.9915 172.142C83.9915 174.062 82.8734 175.229 81.4149 175.861V176.104C83.3352 176.517 84.7208 178 84.7208 180.212C84.7208 183.347 81.8281 185.365 77.3069 185.365ZM77.3069 174.597C78.498 174.597 79.3731 173.892 79.3731 172.871C79.3731 171.801 78.498 171.121 77.3069 171.121C76.1158 171.121 75.265 171.801 75.265 172.871C75.265 173.892 76.1158 174.597 77.3069 174.597ZM77.3069 181.524C78.5952 181.524 79.5189 180.722 79.5189 179.555C79.5189 178.389 78.5952 177.611 77.3069 177.611C76.0186 177.611 75.0949 178.389 75.0949 179.555C75.0949 180.722 76.0186 181.524 77.3069 181.524ZM93.061 185.389C89.0016 185.389 85.9631 182.545 85.8173 178.68H90.4357C90.4357 180.309 91.5539 181.524 93.0124 181.524C94.4222 181.524 95.4188 180.503 95.4188 179.167C95.4188 177.805 94.3979 176.809 93.0124 176.809C92.5262 176.809 91.9671 176.93 91.6511 177.1L90.6302 174.427L93.6201 171.558V171.315H86.984V167.62H99.5025V170.489L95.7348 174.135C98.3115 174.67 100.207 176.906 100.207 179.58C100.207 182.959 97.2176 185.389 93.061 185.389Z" fill="#0B0F18"/>
<path d="M35.6653 198.452C35.1503 198.452 34.7824 198.084 34.7824 197.569C34.7824 197.069 35.1503 196.715 35.6653 196.715C36.1804 196.715 36.5336 197.069 36.5336 197.569C36.5336 198.084 36.1804 198.452 35.6653 198.452ZM35.0473 207.296V199.865H36.2687V207.296H35.0473ZM41.3447 207.576C40.0938 207.576 39.2992 206.693 39.2992 205.383V200.836H38.0924V199.865H39.2992L39.5788 197.466H40.5353L40.5206 199.865H42.4337V200.836H40.5206V205.339C40.5206 206.045 40.9621 206.546 41.6684 206.546C41.8892 206.546 42.2718 206.487 42.5514 206.399V207.385C42.1982 207.502 41.7126 207.576 41.3447 207.576ZM47.7472 207.591C45.4221 207.591 43.7444 205.869 43.7444 203.485C43.7444 201.219 45.3926 199.57 47.6883 199.57C49.9546 199.57 51.5881 201.219 51.5881 203.5C51.5881 203.647 51.5881 203.823 51.5734 203.985H44.9953C45.1719 205.486 46.2609 206.487 47.7766 206.487C48.8803 206.487 49.8516 205.928 50.3225 205.045L51.3379 205.56C50.7346 206.825 49.3954 207.591 47.7472 207.591ZM45.01 202.911H50.3078C50.0871 201.572 49.0422 200.674 47.6295 200.674C46.2609 200.674 45.216 201.572 45.01 202.911ZM53.4683 207.296V199.865H54.6456V200.851H54.7927C55.2048 200.085 55.9847 199.57 56.956 199.57C58.0008 199.57 58.9574 200.144 59.3841 201.013H59.5166C60.0317 200.144 60.8852 199.585 62.0036 199.585C63.7548 199.585 65.0057 200.939 65.0057 202.867V207.296H63.7842V202.852C63.7842 201.586 62.9749 200.674 61.8564 200.674C60.6644 200.674 59.8256 201.586 59.8256 202.852V207.296H58.6042V202.852C58.6042 201.542 57.839 200.674 56.6911 200.674C55.4844 200.674 54.6897 201.542 54.6897 202.852V207.296H53.4683ZM70.1671 207.591C68.0333 207.591 66.7971 206.546 66.7971 204.78H67.9744C67.9891 205.839 68.8132 206.56 70.2112 206.56C71.3297 206.56 72.0508 206.09 72.0508 205.31C72.0508 204.338 71.0353 204.265 69.9169 204.118C68.5336 203.956 66.9296 203.588 66.9296 201.895C66.9296 200.453 68.1363 199.57 69.9169 199.57C71.7712 199.57 73.0367 200.556 73.0367 202.087H71.8447C71.83 201.174 71.0501 200.6 69.9022 200.6C68.8279 200.6 68.0921 201.086 68.0921 201.851C68.0921 202.778 69.0928 202.852 70.1965 202.984C71.5946 203.161 73.1986 203.514 73.1986 205.295C73.1986 206.752 72.0655 207.591 70.1671 207.591Z" fill="#404E6A"/>
</g>
<rect x="20.4599" y="104.46" width="308.117" height="148.08" rx="10.5772" stroke="#E9EEF8" stroke-width="0.919753"/>
</g>
</g>
<defs>
<filter id="filter0_d_52_21" x="7.95123" y="95.6302" width="333.135" height="173.098" filterUnits="userSpaceOnUse" color-interpolation-filters="sRGB">
<feFlood flood-opacity="0" result="BackgroundImageFix"/>
<feColorMatrix in="SourceAlpha" type="matrix" values="0 0 0 0 0 0 0 0 0 0 0 0 0 0 0 0 0 0 127 0" result="hardAlpha"/>
<feOffset dy="3.67901"/>
<feGaussianBlur stdDeviation="6.02438"/>
<feComposite in2="hardAlpha" operator="out"/>
<feColorMatrix type="matrix" values="0 0 0 0 0.245611 0 0 0 0 0.281862 0 0 0 0 0.339863 0 0 0 0.05 0"/>
<feBlend mode="normal" in2="BackgroundImageFix" result="effect1_dropShadow_52_21"/>
<feBlend mode="normal" in="SourceGraphic" in2="effect1_dropShadow_52_21" result="shape"/>
</filter>
<linearGradient id="paint0_linear_52_21" x1="172.513" y1="185" x2="169.44" y2="240.317" gradientUnits="userSpaceOnUse">
<stop stop-color="#4D88FB"/>
<stop offset="1" stop-color="#4D88FB" stop-opacity="0"/>
</linearGradient>
<clipPath id="clip0_52_21">
<rect width="349" height="225" fill="white"/>
</clipPath>
<clipPath id="clip1_52_21">
<rect x="20" y="104" width="309.037" height="149" rx="11.037" fill="white"/>
</clipPath>
</defs>
</svg>
