<svg width="1040" height="974" viewBox="0 0 1040 974" fill="none" xmlns="http://www.w3.org/2000/svg">
<line x1="965.511" x2="965.511" y2="974" stroke="#E9D8A6" stroke-opacity="0.2" stroke-width="0.5"/>
<line x1="1016.25" x2="1016.25" y2="974" stroke="#E9D8A6" stroke-opacity="0.2" stroke-width="0.5"/>
<line x1="406.676" x2="406.676" y2="974" stroke="#E9D8A6" stroke-opacity="0.2" stroke-width="0.5"/>
<line x1="940.11" x2="940.11" y2="974" stroke="#E9D8A6" stroke-opacity="0.2" stroke-width="0.5"/>
<line x1="990.848" x2="990.848" y2="974" stroke="#E9D8A6" stroke-opacity="0.2" stroke-width="0.5"/>
<line x1="381.274" x2="381.274" y2="974" stroke="#E9D8A6" stroke-opacity="0.2" stroke-width="0.5"/>
<line x1="914.708" x2="914.708" y2="974" stroke="#E9D8A6" stroke-opacity="0.2" stroke-width="0.5"/>
<line x1="355.873" x2="355.873" y2="974" stroke="#E9D8A6" stroke-opacity="0.2" stroke-width="0.5"/>
<line x1="889.307" x2="889.307" y2="974" stroke="#E9D8A6" stroke-opacity="0.2" stroke-width="0.5"/>
<line x1="330.471" x2="330.471" y2="974" stroke="#E9D8A6" stroke-opacity="0.2" stroke-width="0.5"/>
<line x1="863.905" x2="863.905" y2="974" stroke="#E9D8A6" stroke-opacity="0.2" stroke-width="0.5"/>
<line x1="305.069" x2="305.069" y2="974" stroke="#E9D8A6" stroke-opacity="0.2" stroke-width="0.5"/>
<line x1="838.503" x2="838.503" y2="974" stroke="#E9D8A6" stroke-opacity="0.2" stroke-width="0.5"/>
<line x1="279.668" x2="279.668" y2="974" stroke="#E9D8A6" stroke-opacity="0.2" stroke-width="0.5"/>
<line x1="813.102" x2="813.102" y2="974" stroke="#E9D8A6" stroke-opacity="0.2" stroke-width="0.5"/>
<line x1="254.266" x2="254.266" y2="974" stroke="#E9D8A6" stroke-opacity="0.2" stroke-width="0.5"/>
<line x1="787.7" x2="787.7" y2="974" stroke="#E9D8A6" stroke-opacity="0.2" stroke-width="0.5"/>
<line x1="228.864" x2="228.864" y2="974" stroke="#E9D8A6" stroke-opacity="0.2" stroke-width="0.5"/>
<line x1="762.298" x2="762.298" y2="974" stroke="#E9D8A6" stroke-opacity="0.2" stroke-width="0.5"/>
<line x1="203.463" x2="203.463" y2="974" stroke="#E9D8A6" stroke-opacity="0.2" stroke-width="0.5"/>
<line x1="736.897" x2="736.897" y2="974" stroke="#E9D8A6" stroke-opacity="0.2" stroke-width="0.5"/>
<line x1="178.061" x2="178.061" y2="974" stroke="#E9D8A6" stroke-opacity="0.2" stroke-width="0.5"/>
<line x1="711.495" x2="711.495" y2="974" stroke="#E9D8A6" stroke-opacity="0.2" stroke-width="0.5"/>
<line x1="152.66" x2="152.66" y2="974" stroke="#E9D8A6" stroke-opacity="0.2" stroke-width="0.5"/>
<line x1="686.094" x2="686.094" y2="974" stroke="#E9D8A6" stroke-opacity="0.2" stroke-width="0.5"/>
<line x1="127.258" x2="127.258" y2="974" stroke="#E9D8A6" stroke-opacity="0.2" stroke-width="0.5"/>
<line x1="660.692" x2="660.692" y2="974" stroke="#E9D8A6" stroke-opacity="0.2" stroke-width="0.5"/>
<line x1="101.856" x2="101.856" y2="974" stroke="#E9D8A6" stroke-opacity="0.2" stroke-width="0.5"/>
<line x1="635.29" x2="635.29" y2="974" stroke="#E9D8A6" stroke-opacity="0.2" stroke-width="0.5"/>
<line x1="76.4548" x2="76.4548" y2="974" stroke="#E9D8A6" stroke-opacity="0.2" stroke-width="0.5"/>
<line x1="609.889" x2="609.889" y2="974" stroke="#E9D8A6" stroke-opacity="0.2" stroke-width="0.5"/>
<line x1="51.0533" x2="51.0533" y2="974" stroke="#E9D8A6" stroke-opacity="0.2" stroke-width="0.5"/>
<line x1="584.487" x2="584.487" y2="974" stroke="#E9D8A6" stroke-opacity="0.2" stroke-width="0.5"/>
<line x1="25.6516" x2="25.6516" y2="974" stroke="#E9D8A6" stroke-opacity="0.2" stroke-width="0.5"/>
<line x1="559.085" x2="559.085" y2="974" stroke="#E9D8A6" stroke-opacity="0.2" stroke-width="0.5"/>
<line x1="0.249939" x2="0.249939" y2="974" stroke="#E9D8A6" stroke-opacity="0.2" stroke-width="0.5"/>
<line x1="533.684" x2="533.684" y2="974" stroke="#E9D8A6" stroke-opacity="0.2" stroke-width="0.5"/>
<line x1="508.282" x2="508.282" y2="974" stroke="#E9D8A6" stroke-opacity="0.2" stroke-width="0.5"/>
<line x1="482.881" x2="482.881" y2="974" stroke="#E9D8A6" stroke-opacity="0.2" stroke-width="0.5"/>
<line x1="457.479" x2="457.479" y2="974" stroke="#E9D8A6" stroke-opacity="0.2" stroke-width="0.5"/>
<line x1="432.077" x2="432.077" y2="974" stroke="#E9D8A6" stroke-opacity="0.2" stroke-width="0.5"/>
<line x1="-6.10352e-05" y1="514.699" x2="1040" y2="514.699" stroke="#E9D8A6" stroke-opacity="0.2" stroke-width="0.498084"/>
<line x1="-6.10352e-05" y1="30.5614" x2="1040" y2="30.5614" stroke="#E9D8A6" stroke-opacity="0.2" stroke-width="0.498084"/>
<line x1="-6.10352e-05" y1="541.596" x2="1040" y2="541.596" stroke="#E9D8A6" stroke-opacity="0.2" stroke-width="0.498084"/>
<line x1="-6.10352e-05" y1="57.4579" x2="1040" y2="57.4579" stroke="#E9D8A6" stroke-opacity="0.2" stroke-width="0.498084"/>
<line x1="-6.10352e-05" y1="568.492" x2="1040" y2="568.492" stroke="#E9D8A6" stroke-opacity="0.2" stroke-width="0.498084"/>
<line x1="-6.10352e-05" y1="84.3545" x2="1040" y2="84.3545" stroke="#E9D8A6" stroke-opacity="0.2" stroke-width="0.498084"/>
<line x1="-6.10352e-05" y1="595.389" x2="1040" y2="595.389" stroke="#E9D8A6" stroke-opacity="0.2" stroke-width="0.498084"/>
<line x1="-6.10352e-05" y1="111.251" x2="1040" y2="111.251" stroke="#E9D8A6" stroke-opacity="0.2" stroke-width="0.498084"/>
<line x1="-6.10352e-05" y1="622.285" x2="1040" y2="622.285" stroke="#E9D8A6" stroke-opacity="0.2" stroke-width="0.498084"/>
<line x1="-6.10352e-05" y1="138.148" x2="1040" y2="138.148" stroke="#E9D8A6" stroke-opacity="0.2" stroke-width="0.498084"/>
<line x1="-6.10352e-05" y1="649.182" x2="1040" y2="649.182" stroke="#E9D8A6" stroke-opacity="0.2" stroke-width="0.498084"/>
<line x1="-6.10352e-05" y1="165.044" x2="1040" y2="165.044" stroke="#E9D8A6" stroke-opacity="0.2" stroke-width="0.498084"/>
<line x1="-6.10352e-05" y1="676.079" x2="1040" y2="676.079" stroke="#E9D8A6" stroke-opacity="0.2" stroke-width="0.498084"/>
<line x1="-6.10352e-05" y1="191.941" x2="1040" y2="191.941" stroke="#E9D8A6" stroke-opacity="0.2" stroke-width="0.498084"/>
<line x1="-6.10352e-05" y1="702.975" x2="1040" y2="702.975" stroke="#E9D8A6" stroke-opacity="0.2" stroke-width="0.498084"/>
<line x1="-6.10352e-05" y1="218.837" x2="1040" y2="218.837" stroke="#E9D8A6" stroke-opacity="0.2" stroke-width="0.498084"/>
<line x1="-6.10352e-05" y1="729.872" x2="1040" y2="729.872" stroke="#E9D8A6" stroke-opacity="0.2" stroke-width="0.498084"/>
<line x1="-6.10352e-05" y1="245.734" x2="1040" y2="245.734" stroke="#E9D8A6" stroke-opacity="0.2" stroke-width="0.498084"/>
<line x1="-6.10352e-05" y1="756.768" x2="1040" y2="756.768" stroke="#E9D8A6" stroke-opacity="0.2" stroke-width="0.498084"/>
<line x1="-6.10352e-05" y1="272.63" x2="1040" y2="272.63" stroke="#E9D8A6" stroke-opacity="0.2" stroke-width="0.498084"/>
<line x1="-6.10352e-05" y1="783.665" x2="1040" y2="783.665" stroke="#E9D8A6" stroke-opacity="0.2" stroke-width="0.498084"/>
<line x1="-6.10352e-05" y1="299.527" x2="1040" y2="299.527" stroke="#E9D8A6" stroke-opacity="0.2" stroke-width="0.498084"/>
<line x1="-6.10352e-05" y1="810.561" x2="1040" y2="810.561" stroke="#E9D8A6" stroke-opacity="0.2" stroke-width="0.498084"/>
<line x1="-6.10352e-05" y1="326.423" x2="1040" y2="326.423" stroke="#E9D8A6" stroke-opacity="0.2" stroke-width="0.498084"/>
<line x1="-6.10352e-05" y1="837.458" x2="1040" y2="837.458" stroke="#E9D8A6" stroke-opacity="0.2" stroke-width="0.498084"/>
<line x1="-6.10352e-05" y1="353.32" x2="1040" y2="353.32" stroke="#E9D8A6" stroke-opacity="0.2" stroke-width="0.498084"/>
<line x1="-6.10352e-05" y1="864.354" x2="1040" y2="864.354" stroke="#E9D8A6" stroke-opacity="0.2" stroke-width="0.498084"/>
<line x1="-6.10352e-05" y1="380.217" x2="1040" y2="380.216" stroke="#E9D8A6" stroke-opacity="0.2" stroke-width="0.498084"/>
<line x1="-6.10352e-05" y1="891.251" x2="1040" y2="891.251" stroke="#E9D8A6" stroke-opacity="0.2" stroke-width="0.498084"/>
<line x1="-6.10352e-05" y1="407.113" x2="1040" y2="407.113" stroke="#E9D8A6" stroke-opacity="0.2" stroke-width="0.498084"/>
<line x1="-6.10352e-05" y1="918.147" x2="1040" y2="918.147" stroke="#E9D8A6" stroke-opacity="0.2" stroke-width="0.498084"/>
<line x1="-6.10352e-05" y1="434.01" x2="1040" y2="434.01" stroke="#E9D8A6" stroke-opacity="0.2" stroke-width="0.498084"/>
<line x1="-6.10352e-05" y1="945.044" x2="1040" y2="945.044" stroke="#E9D8A6" stroke-opacity="0.2" stroke-width="0.498084"/>
<line x1="-6.10352e-05" y1="460.906" x2="1040" y2="460.906" stroke="#E9D8A6" stroke-opacity="0.2" stroke-width="0.498084"/>
<line x1="-6.10352e-05" y1="971.941" x2="1040" y2="971.941" stroke="#E9D8A6" stroke-opacity="0.2" stroke-width="0.498084"/>
<line x1="-6.10352e-05" y1="487.803" x2="1040" y2="487.803" stroke="#E9D8A6" stroke-opacity="0.2" stroke-width="0.498084"/>
</svg>
