<svg width="62" height="63" viewBox="0 0 62 63" fill="none" xmlns="http://www.w3.org/2000/svg">
<rect width="62" height="62.1816" rx="20" fill="url(#paint0_linear_30_14)"/>
<path fill-rule="evenodd" clip-rule="evenodd" d="M35.6836 13.2093C36.1822 13.3573 36.9263 13.7664 37.3376 14.1182C37.7486 14.4702 38.2151 14.7581 38.374 14.7581C38.5329 14.7581 38.663 14.834 38.663 14.9269C38.663 15.0197 39.1184 15.228 39.6751 15.3899C41.0904 15.8013 42.587 17.2404 42.7664 18.3626C42.8596 18.9455 43.004 19.1998 43.325 19.346C43.8203 19.5716 44.4755 20.5399 44.4755 21.0462C44.4755 21.2342 44.771 21.6238 45.1323 21.912C46.3509 22.8844 46.9385 25.0615 46.3882 26.5648C46.2011 27.0757 46.0965 27.8806 46.1094 28.7116C46.1268 29.8287 46.0567 30.1663 45.6709 30.8246C45.4184 31.2556 45.0905 31.6545 44.9427 31.7114C44.7946 31.7682 44.51 32.1353 44.31 32.5271C43.5464 34.024 42.2617 34.63 40.0667 34.5286L38.8047 34.4703L38.3252 35.1315C37.9294 35.6771 33.8777 39.2693 32.6478 40.1646C32.341 40.388 32.305 40.679 32.3005 42.98L32.2956 45.5462L33.3121 46.4582C34.2891 47.335 34.3263 47.4017 34.2708 48.1745L34.2128 48.9789L32.8051 47.7495L31.3974 46.5202V43.1249V39.7299L34.2482 37.2796C35.8162 35.932 37.1309 34.7273 37.1696 34.6024C37.2233 34.4294 36.7227 34.3753 35.0707 34.3753C33.8775 34.3753 32.5219 34.4273 32.0585 34.4908L31.2157 34.6064V40.6257V46.6451L29.8945 47.9575C29.1679 48.6793 28.514 49.2698 28.4414 49.2698C28.0565 49.2698 28.4085 48.3758 29.1221 47.5403L29.935 46.589L29.9495 40.6185L29.9641 34.6478L26.0036 34.557C21.893 34.4627 21.3474 34.3613 20.6906 33.5699C20.5607 33.4135 20.2806 33.2837 20.0681 33.2815C18.7289 33.2677 17.0679 31.7377 16.5884 30.0762C16.4202 29.4937 16.1214 28.5018 15.9243 27.872C15.2568 25.7385 15.5065 24.0407 16.6852 22.7018C17.1408 22.1841 17.4081 21.6699 17.4981 21.1386C17.5856 20.6204 17.8446 20.1111 18.248 19.6648C18.5868 19.2895 18.8645 18.8291 18.8649 18.6414C18.8653 18.4536 19.0371 18.014 19.2467 17.6644C20.1202 16.2073 21.1721 15.4665 22.8917 15.0976C23.5098 14.9652 23.9621 14.7425 24.1824 14.4624C24.7615 13.7264 25.981 13.1404 27.3214 12.9543C29.0998 12.7072 34.5528 12.8734 35.6836 13.2093ZM28.2187 14.205C26.4063 14.3322 25.6357 14.6401 25.0091 15.4878C24.7886 15.7857 24.4689 16.0296 24.2983 16.0296C23.4639 16.0296 21.6382 16.7794 21.1049 17.3412C20.469 18.0111 19.954 18.9404 19.954 19.4178C19.954 19.5927 19.7023 19.9955 19.3947 20.3129C19.0135 20.7063 18.8022 21.1379 18.731 21.6686C18.6531 22.2493 18.4724 22.5827 18.0194 22.9803C17.6855 23.2736 17.4546 23.582 17.5064 23.666C17.5582 23.7497 17.4358 24.0888 17.2341 24.4196C16.7375 25.2339 16.7448 26.6242 17.2505 27.5709C17.4619 27.9665 17.6243 28.5136 17.6112 28.7862C17.5447 30.1758 19.1174 32.014 20.3727 32.014C20.9055 32.014 21.1999 32.142 21.6102 32.5524C21.9065 32.8486 22.4111 33.1598 22.7315 33.2441C23.0521 33.3282 24.8062 33.3628 26.6293 33.3211L29.9443 33.245V23.6382C29.9443 18.3546 29.9239 14.0448 29.8988 14.061C29.8738 14.0772 29.1178 14.142 28.2187 14.205ZM31.2157 23.7292V33.2855H31.8713H32.5268L32.4616 31.3328L32.3964 29.3802H32.8318C33.4566 29.3802 34.6669 28.2224 34.6669 27.6246C34.6669 27.0823 35.0796 26.8445 35.5675 27.1057C35.8207 27.241 36.0594 27.162 36.5988 26.7642C37.9995 25.7312 38.4552 25.1011 38.5161 24.1126C38.5569 23.4513 38.6463 23.2044 38.8446 23.2044C39.0383 23.2044 39.1331 23.4409 39.1725 24.0218C39.2217 24.7478 39.3523 24.9652 40.3417 25.9681C41.4296 27.071 41.4477 27.1053 41.1275 27.4593C40.8024 27.8184 40.7924 27.8155 39.9467 27.1024C39.4775 26.7068 39.011 26.3831 38.91 26.3831C38.7275 26.3831 35.7595 28.6367 34.326 29.8637L33.5771 30.5049V31.8952V33.2855H34.122C34.6533 33.2855 34.6669 33.2631 34.6669 32.3965C34.6669 31.5116 34.6738 31.5014 36.1654 30.1776C36.9895 29.4459 37.8102 28.7018 37.9889 28.5236C38.3715 28.1421 38.5144 28.1236 38.8083 28.4175C39.1756 28.7848 39.069 29.4331 38.6176 29.5758C38.3927 29.647 37.6981 30.1981 37.0736 30.8008C36.0699 31.7693 35.9384 31.9767 35.9384 32.5909V33.2855H38.7629C40.8739 33.2855 41.7158 33.219 42.0962 33.0223C42.6402 32.7409 43.204 32.0105 43.204 31.5871C43.204 31.4453 43.4122 31.1928 43.6668 31.026C44.3811 30.558 44.8377 29.6663 44.8353 28.7445C44.8342 28.2949 44.7667 27.8221 44.6853 27.6938C44.5961 27.5533 44.7125 27.1061 44.9783 26.5693C45.3212 25.8763 45.3928 25.5209 45.2998 24.971C45.1274 23.9508 44.5638 23.1319 43.8198 22.8212C43.3771 22.6361 43.2047 22.4653 43.2752 22.2817C43.4689 21.7774 42.8513 20.6335 42.1945 20.2798C41.675 20.0001 41.5693 19.841 41.5693 19.3396C41.5693 18.6627 41.231 17.9078 40.7208 17.446C40.3679 17.1265 37.8324 16.0312 37.4433 16.0302C37.322 16.03 37.1365 15.8687 37.0313 15.672C36.926 15.4754 36.4532 15.0878 35.9805 14.8106C35.2146 14.3618 34.9083 14.2995 33.1684 14.2399L31.2157 14.1731V23.7292ZM28.6537 15.6307C28.7609 15.8309 28.7645 16.0605 28.663 16.2211C28.3916 16.6497 28.467 17.2177 28.8544 17.6644C29.3808 18.2712 29.3112 18.3909 28.4326 18.3909H27.6476L27.685 17.0452C27.7057 16.305 27.7778 15.6102 27.8452 15.5012C28.033 15.1973 28.4583 15.2654 28.6537 15.6307ZM33.2708 15.5532C33.3237 15.6907 33.3217 16.1402 33.2665 16.5522L33.166 17.3011H34.587H36.008L39.1064 20.51C42.1963 23.7099 42.6718 24.4091 41.8392 24.5284C41.5731 24.5665 40.6369 23.7364 38.4082 21.4859L35.3432 18.3909H33.8243H32.3056V16.9681C32.3056 16.1855 32.3601 15.4907 32.4267 15.4242C32.6385 15.2124 33.1713 15.2938 33.2708 15.5532ZM35.5395 16.0074C35.4965 16.3789 35.3849 16.4837 35.0327 16.4837C34.4793 16.4837 34.3013 15.8868 34.7556 15.5546C35.212 15.2208 35.6045 15.4474 35.5395 16.0074ZM26.1779 17.1649L26.0789 18.6634L24.6216 20.5319L23.1643 22.4003L21.6066 22.3483C20.2494 22.3029 20.0405 22.2523 19.9836 21.9547C19.8866 21.4478 20.2659 21.303 21.6985 21.2999L22.9889 21.2972L24.1052 20.0128L25.2216 18.7284V17.4153C25.2216 16.0698 25.3936 15.6663 25.9672 15.6663C26.2422 15.6663 26.2658 15.8349 26.1779 17.1649ZM23.6526 17.5736C23.8973 18.2111 23.2839 18.7148 22.6655 18.3839C22.2727 18.1737 22.1944 17.5617 22.5424 17.4213C23.0054 17.2346 23.551 17.3093 23.6526 17.5736ZM39.5151 17.5983C39.6364 17.9145 39.3999 18.4178 39.0799 18.5244C38.9736 18.5599 38.7549 18.4569 38.5936 18.2956C38.3713 18.0732 38.3459 17.9178 38.4881 17.6518C38.7171 17.2239 39.3585 17.1905 39.5151 17.5983ZM22.4843 19.457C22.7384 19.9318 22.5736 20.0257 21.4871 20.0257C20.5127 20.0257 20.1315 19.7393 20.5494 19.3213C20.8993 18.9715 22.2761 19.0679 22.4843 19.457ZM29.0359 21.5242C29.036 22.5173 29.0137 22.5687 28.5819 22.5687C28.1769 22.5687 28.1278 22.4938 28.1278 21.8748C28.1278 21.3606 27.9867 21.0229 27.5829 20.5706C26.961 19.8738 26.9049 19.5732 27.3508 19.3238C27.596 19.1865 27.8118 19.2926 28.3496 19.8143C28.9866 20.432 29.0357 20.5546 29.0359 21.5242ZM33.2797 19.4853C33.5633 19.7485 33.2034 20.0257 32.578 20.0257C31.8404 20.0257 31.5776 19.7006 32.0413 19.3616C32.3653 19.1246 32.9544 19.1834 33.2797 19.4853ZM40.7519 19.6624C40.7519 19.9954 40.6425 20.132 40.3425 20.1746C40.0967 20.2095 39.8891 20.1187 39.8235 19.9476C39.6426 19.4762 39.896 19.0868 40.3425 19.1502C40.6425 19.1929 40.7519 19.3295 40.7519 19.6624ZM35.1728 21.7989L35.2245 23.6585H34.666H34.1075L34.1351 21.9783C34.1634 20.2607 34.3212 19.7861 34.8318 19.8838C35.0698 19.9293 35.1303 20.2691 35.1728 21.7989ZM26.6391 21.6826C26.7023 22.2272 26.2355 22.5193 25.8343 22.1863C25.5676 21.9651 25.5017 21.441 25.7137 21.2289C26.0097 20.933 26.5848 21.2149 26.6391 21.6826ZM33.123 22.387C33.123 22.742 33.0189 22.8531 32.6467 22.8963C32.1354 22.9556 31.8722 22.5992 32.062 22.1048C32.1307 21.9258 32.345 21.8427 32.6467 21.8777C33.0189 21.9209 33.123 22.0321 33.123 22.387ZM37.1736 22.2417C37.4595 22.5276 37.4536 23.2427 37.1645 23.3465C36.8132 23.4723 36.3017 23.1368 36.3017 22.7803C36.3017 22.4704 36.6234 22.0237 36.8466 22.0237C36.9065 22.0237 37.0537 22.1218 37.1736 22.2417ZM22.8603 26.1107L25.6713 28.9261H27.3537H29.036V29.471V30.0159H24.1446C19.998 30.0159 19.2111 29.9736 18.9757 29.7382C18.8229 29.5854 18.7441 29.3402 18.8004 29.1933C18.8842 28.9753 19.384 28.9261 21.5174 28.9261C22.9553 28.9261 24.1318 28.8832 24.1318 28.8309C24.1318 28.7786 23.1763 27.7569 22.0087 26.5604C20.5734 25.0897 19.7569 24.3851 19.4881 24.3851C18.9931 24.3851 18.6393 23.9826 18.7897 23.5908C18.8613 23.4042 19.1145 23.2952 19.4761 23.2952C19.9736 23.2952 20.4201 23.6667 22.8603 26.1107ZM24.209 23.9956C24.3564 24.2808 24.9693 24.9552 25.5709 25.4942C26.5992 26.4155 26.7325 26.4794 27.8049 26.5648C28.8575 26.6487 28.9494 26.6905 28.9983 27.1097C29.0513 27.5627 29.0479 27.5638 27.4997 27.5638C26.1966 27.5638 25.9482 27.5171 25.9482 27.2723C25.9482 26.9682 24.4062 25.4173 23.5414 24.8517C23.0713 24.5442 22.8732 23.8877 23.1631 23.598C23.4439 23.317 23.9596 23.513 24.209 23.9956ZM27.0046 23.9764C26.959 24.3727 26.8535 24.4759 26.4931 24.4759C26.1327 24.4759 26.0272 24.3727 25.9816 23.9764C25.9296 23.5256 25.9794 23.4769 26.4931 23.4769C27.0068 23.4769 27.0565 23.5256 27.0046 23.9764ZM43.9462 24.0672C43.9547 24.1922 43.9497 25.1934 43.9346 26.2923C43.9086 28.2104 43.8861 28.3172 43.374 28.9608C43.0807 29.3297 42.8407 29.7587 42.8407 29.9144C42.8407 30.1416 42.6091 30.1976 41.6708 30.1976C41.0272 30.1976 40.4503 30.1158 40.3886 30.0159C40.3237 29.9109 40.4963 29.8343 40.7973 29.8343C41.2023 29.8343 41.5079 29.6147 42.1703 28.8474L43.0224 27.8606V25.9713C43.0224 24.9324 43.0769 24.0278 43.1435 23.9613C43.3519 23.7528 43.9299 23.8291 43.9462 24.0672ZM28.9452 24.655C28.9452 25.3073 28.4319 25.4982 28.1407 24.9542C27.8728 24.4536 28.0892 23.9906 28.5596 24.0576C28.8542 24.0997 28.9452 24.2405 28.9452 24.655ZM33.3858 24.6459C33.6397 24.952 33.3507 25.6566 32.9713 25.6566C32.4153 25.6566 32.0507 24.6999 32.5326 24.5053C32.937 24.3422 33.1649 24.3798 33.3858 24.6459ZM36.2697 25.3474C36.3039 25.5271 36.2346 25.791 36.116 25.9339C35.8 26.3146 35.2118 25.945 35.2118 25.3656C35.2118 24.9716 35.283 24.914 35.7097 24.9634C36.016 24.9987 36.2316 25.1467 36.2697 25.3474ZM19.0362 25.3725C19.1995 25.5694 19.202 25.7281 19.0462 26.0191C18.8148 26.4518 18.3618 26.4423 18.0828 25.9991C17.6626 25.3318 18.5294 24.762 19.0362 25.3725ZM33.2752 27.1413C33.54 27.5611 33.2853 28.0179 32.7866 28.0179C32.2467 28.0179 32.0337 27.4076 32.4336 27.0076C32.7502 26.691 33.018 26.7335 33.2752 27.1413ZM20.9367 27.2236C21.0809 27.5992 20.7398 28.0179 20.2893 28.0179C19.9015 28.0179 19.679 27.6148 19.8381 27.2005C19.9782 26.8352 20.7943 26.8523 20.9367 27.2236ZM22.8603 30.8333C23.0445 31.0553 23.6386 31.1058 26.0611 31.1058H29.036V31.6605V32.2154L26.0844 32.1709C24.4611 32.1466 23.0101 32.0663 22.8603 31.9927C22.7104 31.9192 22.4429 31.8138 22.2658 31.759C21.7757 31.6067 21.658 31.0923 22.0482 30.807C22.4754 30.4947 22.5822 30.4982 22.8603 30.8333ZM41.4683 31.4527C41.5244 31.5435 41.5206 31.7479 41.4595 31.9068C41.3667 32.1488 40.9929 32.1956 39.1569 32.1956H36.9648L37.3915 31.7415C37.79 31.3172 37.9346 31.2874 39.5921 31.2874C40.5679 31.2874 41.4121 31.3617 41.4683 31.4527ZM35.8425 35.6368C35.0767 36.3919 31.6626 39.2774 31.5336 39.2785C31.4588 39.2791 31.3974 38.4214 31.3974 37.3724C31.3974 35.4682 31.3981 35.4652 31.8435 35.4652C32.2694 35.4652 32.2921 35.5224 32.343 36.7306L32.3964 37.9961L33.8495 36.6482C34.8202 35.7478 35.4518 35.2975 35.7517 35.2919C36.1981 35.2835 36.1987 35.2855 35.8425 35.6368Z" fill="#FDFEFF"/>
<defs>
<linearGradient id="paint0_linear_30_14" x1="-1.41768" y1="31.0908" x2="70.3171" y2="31.0908" gradientUnits="userSpaceOnUse">
<stop stop-color="#F68A71"/>
<stop offset="0.72" stop-color="#D801D1"/>
<stop offset="1" stop-color="#EC0505"/>
</linearGradient>
</defs>
</svg>
