<svg width="25" height="24" viewBox="0 0 25 24" fill="none" xmlns="http://www.w3.org/2000/svg">
<g opacity="0.6">
<path d="M22.5929 17.4895C22.0409 18.7116 21.7769 19.2581 21.0679 20.3381C20.0775 21.8464 18.679 23.7285 16.9501 23.7415C15.4123 23.7544 15.0153 22.7381 12.9283 22.7547C10.8412 22.7648 10.4064 23.7599 8.86672 23.7442C7.1378 23.7285 5.8141 22.0328 4.82272 20.5273C2.05072 16.3042 1.7581 11.3547 3.47133 8.72115C4.68333 6.85377 6.60149 5.75715 8.40241 5.75715C10.2366 5.75715 11.3895 6.76515 12.9061 6.76515C14.3775 6.76515 15.2738 5.75438 17.395 5.75438C18.9993 5.75438 20.6959 6.62854 21.9079 8.13685C17.9424 10.3098 18.5867 15.9738 22.5929 17.4895ZM15.7852 4.06885C16.5569 3.07838 17.1421 1.68085 16.9298 0.255615C15.6707 0.341461 14.1984 1.14546 13.3381 2.18669C12.559 3.13469 11.9129 4.54331 12.1649 5.90577C13.5384 5.95008 14.9599 5.13131 15.7852 4.06885Z" fill="black"/>
</g>
</svg>
