<svg width="25" height="24" viewBox="0 0 25 24" fill="none" xmlns="http://www.w3.org/2000/svg">
<g opacity="0.6">
<path d="M22.5929 17.4896C22.0409 18.7117 21.7769 19.2582 21.0679 20.3382C20.0775 21.8465 18.679 23.7287 16.9501 23.7416C15.4123 23.7545 15.0153 22.7382 12.9283 22.7548C10.8412 22.765 10.4064 23.76 8.86672 23.7444C7.1378 23.7287 5.8141 22.033 4.82272 20.5274C2.05072 16.3044 1.7581 11.3548 3.47133 8.72128C4.68333 6.85389 6.60149 5.75728 8.40241 5.75728C10.2366 5.75728 11.3895 6.76528 12.9061 6.76528C14.3775 6.76528 15.2738 5.75451 17.395 5.75451C18.9993 5.75451 20.6959 6.62866 21.9079 8.13697C17.9424 10.3099 18.5867 15.9739 22.5929 17.4896ZM15.7852 4.06897C16.5569 3.07851 17.1421 1.68097 16.9298 0.255737C15.6707 0.341583 14.1984 1.14558 13.3381 2.18681C12.559 3.13481 11.9129 4.54343 12.1649 5.90589C13.5384 5.9502 14.9599 5.13143 15.7852 4.06897Z" fill="white"/>
</g>
</svg>
